<svg xmlns="http://www.w3.org/2000/svg" width="75.941" height="28.076" viewBox="0 0 75.941 28.076">
  <path d="M18.526-55.563H14.2L10-52.549v4.64l3.926-2.7V-28.2h4.6ZM31.969-28.2h5l5.552-12.1c1.229-2.7,2.221-5.155,2.221-7.178,0-5.473-3.728-8.447-8.645-8.447-4.878,0-8.605,3.014-8.605,8.526,0,4.679,3.093,8.129,7.376,8.129a5.467,5.467,0,0,0,2.617-.555Zm8.169-19.312c0,2.617-1.467,4.4-4.045,4.4-2.5,0-4.005-1.785-4.005-4.4,0-2.657,1.507-4.4,4.005-4.4C38.671-51.915,40.138-50.17,40.138-47.513Zm12.73.436v-4.481h7.376L52-28.2h4.8L65-52.034v-3.529H48.9v8.486Zm21.811,6.741h1.9c3.172,0,4.8,1.666,4.8,4.441a3.884,3.884,0,0,1-4.005,4.045c-2.816,0-4.2-1.507-4.521-3.49h-4.2c.238,4.322,3.371,7.495,8.923,7.495,5.274,0,8.367-3.609,8.367-7.931A6.845,6.845,0,0,0,81.658-42.4,6.694,6.694,0,0,0,85.544-48.5c0-4.124-3.49-7.416-8.288-7.416-4.4,0-8.129,2.895-8.248,7.3h4.2A3.707,3.707,0,0,1,77.1-51.994a3.644,3.644,0,0,1,3.886,3.609c0,2.578-1.547,4.085-4.4,4.085h-1.9Z" transform="translate(-10 55.92)" fill="#eb2935"/>
</svg>
