<svg xmlns="http://www.w3.org/2000/svg" width="18.148" height="21.778" viewBox="0 0 18.148 21.778">
  <g transform="translate(-3198 -5971)">
    <g transform="translate(3114 5976.724)">
      <path d="M156.454,242.276H156v.907h.454a.454.454,0,0,0,0-.907Zm0,0" transform="translate(-67.917 -233.935)" fill="#fff"/>
      <path d="M236.681,242.276H236V245h.681a.227.227,0,0,0,.227-.227V242.5a.227.227,0,0,0-.227-.227Zm0,0" transform="translate(-143.38 -233.935)" fill="#fff"/>
      <path d="M97.611-5.724H86.5a2.5,2.5,0,0,0-2.5,2.5V13.559a2.5,2.5,0,0,0,2.5,2.5H99.653a2.5,2.5,0,0,0,2.5-2.5v-14.8ZM88.537,10.61h-.454v1.134a.681.681,0,0,1-1.361,0V7.66A.681.681,0,0,1,87.4,6.98h1.134a1.815,1.815,0,1,1,0,3.63Zm6.352.227A1.59,1.59,0,0,1,93.3,12.424H91.94a.681.681,0,0,1-.681-.681V7.66a.681.681,0,0,1,.681-.681H93.3a1.59,1.59,0,0,1,1.588,1.588Zm3.857-1.588a.681.681,0,0,1,0,1.361H97.158v1.134a.681.681,0,0,1-1.361,0V8.568A1.59,1.59,0,0,1,97.384,6.98h1.361a.681.681,0,0,1,0,1.361H97.384a.227.227,0,0,0-.227.227v.681Zm0,0" fill="#fff"/>
    </g>
  </g>
</svg>
