<svg xmlns="http://www.w3.org/2000/svg" width="259.078" height="39.229" viewBox="0 0 259.078 39.229">
  <g id="logo" transform="translate(52.474 1.954)">
    <g transform="translate(-52.474 -1.954)">
      <g transform="translate(0)">
        <path d="M308.424,389.307v1.127h13.937v-1.715H309.016A.577.577,0,0,0,308.424,389.307Z" transform="translate(-290.173 -372.332)" fill="#1a1311"/>
        <path d="M308.419,414l-.005,5.732h13.941V414Z" transform="translate(-290.167 -386.74)" fill="#1a1311"/>
        <path d="M273.873,368.214A10.907,10.907,0,0,1,284.7,357.255h12.986v-6.629H265.5v33h8.373Z" transform="translate(-265.5 -350.626)" fill="#1a1311"/>
      </g>
      <path d="M297.258,368.186a9.986,9.986,0,0,0-9.915,10.034v15.409h8.046l.005-6.658h14.853v-7.313H295.392v-2.052a1.493,1.493,0,0,1,1.506-1.513h13.345v-7.908Z" transform="translate(-278.056 -360.632)" fill="#1a1311"/>
      <path d="M310.651,370.336H298.494a9.054,9.054,0,0,0-9,9.109V394h6.218l.006-6.733h14.939v-5.462H295.714v-2.977a2.419,2.419,0,0,1,2.42-2.437h12.517Z" transform="translate(-279.291 -361.857)" fill="#dc0016" stroke="#dc0016" stroke-miterlimit="2" stroke-width="0.75"/>
      <g transform="translate(0 34.428)">
        <path d="M265.5,435.458v-4.8h3.4v1.121h-1.964v.873H268.5v1.12h-1.564v1.687Z" transform="translate(-265.5 -430.657)" fill="#1a1311"/>
        <path d="M276.257,433.784v1.673h-1.431v-4.8h2.061c1.455,0,1.935.434,1.935,1.367a1.112,1.112,0,0,1-.734,1.174c.461.187.74.306.74,1.273,0,.627-.018.841.151.841v.146H277.53a3.447,3.447,0,0,1-.073-.84c0-.627-.1-.833-.764-.833Zm0-1.053h.564c.443,0,.679-.12.679-.453s-.243-.5-.576-.5h-.667Z" transform="translate(-270.861 -430.657)" fill="#1a1311"/>
        <path d="M286.134,435.458v-4.8h3.559v1.121h-2.129v.686h1.8v1.121h-1.8v.753h2.214v1.12Z" transform="translate(-277.361 -430.657)" fill="#1a1311"/>
        <path d="M296.54,435.458v-4.8H300.1v1.121h-2.128v.686h1.8v1.121h-1.8v.753h2.213v1.12Z" transform="translate(-283.342 -430.657)" fill="#1a1311"/>
        <path d="M306.607,435.458v-4.8h1.728l.771,2.994.77-2.994H311.6v4.8h-1.285v-1.467l.018-.747.072-.867H310.4l-.795,3.081h-.994l-.795-3.081H307.8l.061.707.03.746v1.627Z" transform="translate(-289.129 -430.657)" fill="#1a1311"/>
        <path d="M319.37,435.458l1.565-4.8h1.455l1.564,4.8h-1.425l-.171-.633h-1.424l-.165.633Zm2.279-3.354-.443,1.72h.9Z" transform="translate(-296.465 -430.657)" fill="#1a1311"/>
        <path d="M334.19,433.278l-.055-1.093v-1.527h1.37v4.8h-1.34l-1.558-2.614.055,1.093v1.52h-1.37v-4.8h1.339Z" transform="translate(-303.318 -430.657)" fill="#1a1311"/>
      </g>
      <text transform="translate(32.952 31.845)" fill="#1a1311" font-size="1" font-family="Helvetica"><tspan x="-0.368" y="0">®</tspan></text>
    </g>
    <path d="M13.357.361V1.824H16.3l-.1-8.626v-4.94l.057-3.249-.152-.114-3.192.057H6.061L2.85-15.105l-.152.114.057,3.249v5.225L2.66,1.824H5.529V.361Zm0-2.432H5.529v-4.18h7.828Zm0-6.555H5.529v-4.028h7.828ZM33.8-10.45l3.154.057.133-.133v-2.185l-.133-.133-3.154.057H29.792v-3.306l-.133-.133H27.113l-.133.133v3.306h-3.8l-3.154-.057-.133.133v2.185l.133.133,3.154-.057h3A27.977,27.977,0,0,1,19.19-2.926l1.691,1.9c.095.1.152.171.247.171a.409.409,0,0,0,.247-.114,27.49,27.49,0,0,0,5.719-6.707l-.076,4.028h-.247L24.282-3.7l-.133.133v2.09l.133.133,2.489-.057h.19l-.076,3.325h3l-.076-3.325h.475l2.489.057.133-.133v-2.09L32.775-3.7l-2.489.057h-.532L29.659-7.9A34.011,34.011,0,0,0,35.53-1.14a.392.392,0,0,0,.266.133.312.312,0,0,0,.228-.152l1.767-2.3a26.627,26.627,0,0,1-7.2-6.992Zm7.239-2.983v2.622l.171.114,2.907-.057h6.441A11.182,11.182,0,0,1,48.165-5.8C46.607-3.914,44.5-2.6,41.249-1.52L43.567.342c.19.152.285.209.4.209a.939.939,0,0,0,.361-.114A16.272,16.272,0,0,0,50.863-4.2a16.26,16.26,0,0,0,3.382-9.177l-.152-.133H44.08l-2.888-.057Zm30.172-1.292-.152-.152H68.267l-.152.133v5.89c0,2.147-.114,3.287-1.026,4.655a8.982,8.982,0,0,1-4.9,3.23L64.467.722c.19.133.285.209.38.209a.939.939,0,0,0,.361-.114,9.9,9.9,0,0,0,4.636-3.591c1.083-1.71,1.368-3.116,1.368-6.365Zm-6.384.361-.152-.152h-2.7l-.152.133v3.325l-.1,5.377h3.192L64.828-11.1ZM92.587-5.51l.133-.152v-2.7l-.152-.133-2.926.057H81.168l-2.717-.057-.171.114v2.717l.133.152,2.831-.057h8.493Zm9.462-2.7L100.13-6.574v.19a29.807,29.807,0,0,1,5.434,5.567h.171l2.147-1.862.038-.19c-.475-.551-.95-1.083-1.444-1.577a67.38,67.38,0,0,0,5.7-5.377.613.613,0,0,0,.228-.437.716.716,0,0,0-.19-.437l-1.273-1.748-2.033.1H99.845l-2.717-.057-.152.133v2.508l.133.152L99.9-9.671h7.923A41.938,41.938,0,0,1,104.5-6.346c-.7-.627-1.482-1.292-2.242-1.862Zm14.63-2.7a22.257,22.257,0,0,1,3.724,2.85l.171-.019,1.976-2.3v-.19a20.113,20.113,0,0,0-3.857-2.622l-.19.038-1.843,2.071Zm13.661-1.577a34.411,34.411,0,0,1-13.452,9.671l-.038.19,1.71,2.565.19.038A37.134,37.134,0,0,0,131.271-8.8c.133-.133.19-.209.19-.342a1.019,1.019,0,0,0-.076-.361Zm14.516,5.871a18.71,18.71,0,0,1-5.415,5.624L141.018.589c.114.114.19.19.266.19.057,0,.133-.057.266-.152a17.014,17.014,0,0,0,3.781-3.9l-.152,5.111h2.85L147.858-3.5A17.68,17.68,0,0,0,150.765.38a.432.432,0,0,0,.266.152q.114,0,.285-.228l1.558-2A18.806,18.806,0,0,1,148.2-6.612h1.71l2.508.057.114-.1V-8.759l-.114-.1L149.91-8.8H147.9v-2.166h1.387l2.508.057L151.9-11V-13.11l-.114-.1-2.508.057H147.9v-3l-.114-.114h-2.375l-.1.114v3h-.817c.114-.361.228-.741.342-1.121l-.076-.19L142.69-15.2l-.152.095a17.994,17.994,0,0,1-1.767,4.579v-2.052l-.1-.1-1.615.038v-3.534l-.114-.114H136.8l-.1.114v3.553l-2.166-.057-.114.114v2.071l.133.114,2.052-.057A22.777,22.777,0,0,1,134.1-4.56l1.159,1.9a.368.368,0,0,0,.285.209.257.257,0,0,0,.228-.171,17.844,17.844,0,0,0,.988-2.527L136.591,1.9h2.6l-.133-7.106v-.931c.247.456.456.893.665,1.368l.171.019,1.425-1.216.038-.19-.228-.4,2.432-.057Zm.456-2.185h-1.748l-2.508-.057-.114.114v1.881a13.783,13.783,0,0,0-1.235-1.691h-.19l-.456.3v-2.166l1.634.038c-.038.076-.1.152-.152.247l1.786.988a.71.71,0,0,0,.285.095.222.222,0,0,0,.209-.133c.323-.589.608-1.178.874-1.786h1.615Zm21.907-4.256c-.019-.912-.038-1.881-.038-2.945l-.133-.133h-2.527l-.114.152c0,1.026.019,1.995.038,2.926h-7.03l-2.793-.057-.114.114v2.185l.133.114,2.774-.057h7.144a25.682,25.682,0,0,0,1.786,8.816c1.311,2.888,2.565,3.686,3.781,3.686,1.311,0,2.28-1.1,2.565-3.648a.5.5,0,0,0-.247-.494l-1.672-1.368c-.285,2.071-.475,2.451-.7,2.451s-.722-.551-1.406-2.2a21.845,21.845,0,0,1-1.368-7.239h2.375l2.679.057.114-.1v-2.223l-.114-.095-2.489.057,1.387-1.1.038-.209a8.728,8.728,0,0,0-1.957-1.786l-.19.019-1.52,1.159v.171a9.7,9.7,0,0,1,1.653,1.748Zm-6.156,6.764h.38l2.451.057.114-.095V-8.493l-.114-.1-2.451.057h-3.572l-2.394-.057-.114.114v2.128l.133.114,2.375-.057h.475v4.313c-1.254.19-2.508.361-3.705.513l-.114.152.912,2.223.152.114c3.439-.589,6.327-1.178,8.7-1.786.323-.076.456-.209.456-.551l.038-1.786c-1.1.228-2.375.475-3.724.684Zm26.771-2.755q1.055.713,2.223,1.368a.663.663,0,0,0,.342.114c.152,0,.323-.095.532-.342l1.786-2.033a22.668,22.668,0,0,1-8.075-5.149c.095-.171.209-.323.323-.494l-.057-.19-2.717-.684-.209.057a19.867,19.867,0,0,1-7.923,7.03l1.862,1.843a.4.4,0,0,0,.3.133.974.974,0,0,0,.456-.171c.779-.475,1.52-.95,2.2-1.463v1.14l.133.114,2.109-.057h4.465l2.128.057.114-.095Zm-2.242-1.083h-4.465l-.836-.019a20.671,20.671,0,0,0,2.907-3,29.449,29.449,0,0,0,3.154,3Zm2.945,5.966,3.078.057.114-.095V-6.441l-.114-.1-3.078.057H178.182L175.1-6.536l-.114.114v2.2l.133.114,3.059-.057h1.767a25.014,25.014,0,0,1-1.6,3.192c-.912.019-1.862.038-2.926.057l-.133.171.779,2.242.171.095c4.484-.285,7.79-.551,11.932-1.026.342.4.665.817.988,1.254l.19.019L191.292.228l.019-.152a28.084,28.084,0,0,0-4.465-4.142l-.171.019-1.862,1.083-.038.171c.551.437,1.064.893,1.577,1.387-1.691.133-3.382.266-5.073.323a26.869,26.869,0,0,0,1.691-3.078Zm11.02-2.66v-.57a18.354,18.354,0,0,0,2.546-4.522.67.67,0,0,0,.057-.266.52.52,0,0,0-.133-.342l-1.007-.969-1.159.057h-.3v-2.736l-.114-.152h-2.318l-.133.133v2.755l-2.261-.057-.114.114v2.2l.114.152,2.318-.038h1.843a15.236,15.236,0,0,1-4.826,5.51l1.273,1.881a.331.331,0,0,0,.266.171.608.608,0,0,0,.323-.152,12.3,12.3,0,0,0,1.064-.95v1.843l-.1,4.674h2.755l-.1-4.674V-5.3a13.972,13.972,0,0,1,1.33,1.634l.247.019,1.6-1.6.019-.19a14.2,14.2,0,0,0-2.318-2.014l-.228-.019Zm8.246-3.42v-5.738l-.133-.133h-2.432l-.133.152v5.719h-.836l-2.508-.057-.114.114v2.242l.133.114,2.489-.057h.836v6.612h-1.767L200.83-1.33l-.114.1V1.026l.133.114,2.489-.057h6.308l2.3.057.133-.133V-1.235l-.114-.1-2.318.057H207.8V-7.885h1.1l2.508.057.114-.095V-10.2l-.114-.1-2.508.057Z" transform="translate(-5.474 15.046)"/>
    <path d="M1.025-8.607H7v1.055h-4.8v2.613H6.416v1.025H2.191V0H1.025ZM21.366-4.664a2.26,2.26,0,0,0,1.3-.328,1.336,1.336,0,0,0,.478-1.184,1.27,1.27,0,0,0-.668-1.254,2.183,2.183,0,0,0-.955-.176H18.671v2.941ZM17.5-8.607h3.984a3.974,3.974,0,0,1,1.623.287,2.033,2.033,0,0,1,1.213,2.033,2.286,2.286,0,0,1-.319,1.266,2.307,2.307,0,0,1-.894.791,1.761,1.761,0,0,1,.759.539,1.936,1.936,0,0,1,.284,1.084L24.2-1.453a3.548,3.548,0,0,0,.082.732.72.72,0,0,0,.375.527V0h-1.43a1.075,1.075,0,0,1-.094-.287,5.511,5.511,0,0,1-.059-.68L23-2.4a1.206,1.206,0,0,0-.627-1.131,2.593,2.593,0,0,0-1.049-.158H18.671V0H17.5Zm17.757,0h6.275v1.055H36.4v2.613H41.15v1H36.4v2.918h5.227V0H35.261Zm17.124,0h6.275v1.055H53.522v2.613h4.752v1H53.522v2.918h5.227V0H52.385Zm16.983,0h1.67L73.511-1.33l2.455-7.277h1.652V0H76.511V-5.08q0-.264.012-.873t.012-1.307L74.08,0H72.925L70.453-7.26V-7q0,.316.015.964t.015.952V0H69.369Zm23.563,5.08-1.307-3.8-1.389,3.8Zm-1.916-5.08h1.318L95.457,0H94.18l-.873-2.578H89.9L88.971,0h-1.2Zm14.622,0h1.377l4.348,6.973V-8.607h1.107V0h-1.307l-4.412-6.967V0h-1.113ZM140.1-2.566a3.645,3.645,0,0,1-.322,1.693,2.349,2.349,0,0,1-2.273,1.1A2.64,2.64,0,0,1,135.855-.3a2.217,2.217,0,0,1-.686-1.866v-.615h1.1v.615a1.555,1.555,0,0,0,.313,1.058,1.237,1.237,0,0,0,.976.354,1.194,1.194,0,0,0,1.219-.639,4.157,4.157,0,0,0,.176-1.482V-8.607H140.1Zm15.313-.961-1.307-3.8-1.389,3.8ZM153.5-8.607h1.318L157.941,0h-1.277l-.873-2.578h-3.4L151.455,0h-1.2Zm14.733,0h3.873a2.626,2.626,0,0,1,1.852.647,2.35,2.35,0,0,1,.7,1.819,2.645,2.645,0,0,1-.627,1.755,2.375,2.375,0,0,1-1.928.747H169.4V0h-1.166Zm5.25,2.473a1.3,1.3,0,0,0-.7-1.289,2.539,2.539,0,0,0-1.061-.182H169.4v2.982h2.32a2.218,2.218,0,0,0,1.274-.334A1.323,1.323,0,0,0,173.483-6.135Zm15.3,2.607-1.307-3.8-1.389,3.8Zm-1.916-5.08h1.318L191.3,0h-1.277l-.873-2.578h-3.4L184.818,0h-1.2Zm14.622,0h1.377l4.348,6.973V-8.607h1.107V0H207.01L202.6-6.967V0h-1.113Z" transform="translate(-2.474 37.046)"/>
    <circle cx="3" cy="3" r="3" transform="translate(118.526 30.046)" fill="#eb2935"/>
  </g>
</svg>
