<svg xmlns="http://www.w3.org/2000/svg" width="195.877" height="35.563" viewBox="0 0 195.877 35.563">
  <g transform="translate(-39.52 -54.019)">
    <path d="M12.654.342V1.728h2.79l-.09-8.172v-4.68l.054-3.078-.144-.108-3.024.054h-6.5L2.7-14.31l-.144.108.054,3.078v4.95l-.09,7.9H5.238V.342Zm0-2.3H5.238v-3.96h7.416Zm0-6.21H5.238v-3.816h7.416ZM32.022-9.9l2.988.054.126-.126v-2.07l-.126-.126-2.988.054h-3.8v-3.132l-.126-.126H25.686l-.126.126v3.132h-3.6l-2.988-.054-.126.126v2.07l.126.126L21.96-9.9H24.8A26.5,26.5,0,0,1,18.18-2.772l1.6,1.8c.09.09.144.162.234.162a.387.387,0,0,0,.234-.108,26.044,26.044,0,0,0,5.418-6.354L25.6-3.456h-.234L23-3.51l-.126.126V-1.4L23-1.278l2.358-.054h.18l-.072,3.15h2.844l-.072-3.15h.45l2.358.054.126-.126v-1.98L31.05-3.51l-2.358.054h-.5L28.1-7.488A32.221,32.221,0,0,0,33.66-1.08a.371.371,0,0,0,.252.126.3.3,0,0,0,.216-.144L35.8-3.276A25.226,25.226,0,0,1,28.98-9.9Zm6.858-2.826v2.484l.162.108,2.754-.054h6.1a10.593,10.593,0,0,1-2.268,4.7,13.48,13.48,0,0,1-6.552,4.05l2.2,1.764c.18.144.27.2.378.2a.89.89,0,0,0,.342-.108,15.415,15.415,0,0,0,6.192-4.392,15.4,15.4,0,0,0,3.2-8.694l-.144-.126H41.76l-2.736-.054ZM67.464-13.95l-.144-.144H64.674l-.144.126v5.58c0,2.034-.108,3.114-.972,4.41a8.509,8.509,0,0,1-4.644,3.06l2.16,1.6c.18.126.27.2.36.2a.89.89,0,0,0,.342-.108,9.382,9.382,0,0,0,4.392-3.4c1.026-1.62,1.3-2.952,1.3-6.03Zm-6.048.342-.144-.144H58.716l-.144.126v3.15l-.09,5.094h3.024l-.09-5.13Zm26.3,8.388.126-.144V-7.92L87.7-8.046l-2.772.054H76.9l-2.574-.054-.162.108v2.574l.126.144,2.682-.054h8.046Zm8.964-2.556L94.86-6.228v.18a28.238,28.238,0,0,1,5.148,5.274h.162L102.2-2.538l.036-.18c-.45-.522-.9-1.026-1.368-1.494a63.835,63.835,0,0,0,5.4-5.094.581.581,0,0,0,.216-.414.678.678,0,0,0-.18-.414L105.1-11.79l-1.926.09H94.59l-2.574-.054-.144.126v2.376L92-9.108l2.646-.054h7.506A39.731,39.731,0,0,1,99-6.012c-.666-.594-1.4-1.224-2.124-1.764Zm13.86-2.556a21.086,21.086,0,0,1,3.528,2.7l.162-.018L116.1-9.828v-.18a19.054,19.054,0,0,0-3.654-2.484l-.18.036-1.746,1.962Zm12.942-1.494a32.6,32.6,0,0,1-12.744,9.162l-.036.18,1.62,2.43.18.036a35.18,35.18,0,0,0,11.862-8.316c.126-.126.18-.2.18-.324A.966.966,0,0,0,124.47-9Zm13.178,5.91a16.741,16.741,0,0,1-4.845,5.032L133.224.527c.1.1.17.17.238.17.051,0,.119-.051.238-.136a15.223,15.223,0,0,0,3.383-3.485l-.136,4.573h2.55l-.153-4.777a15.82,15.82,0,0,0,2.6,3.468.387.387,0,0,0,.238.136q.1,0,.255-.2l1.394-1.785a16.826,16.826,0,0,1-4.182-4.4h1.53l2.244.051.1-.085V-7.837l-.1-.085-2.244.051h-1.8V-9.809h1.241l2.244.051.1-.085V-11.73l-.1-.085-2.244.051h-1.241V-14.45l-.1-.1h-2.125l-.085.1v2.686h-.731c.1-.323.2-.663.306-1l-.068-.17L134.72-13.6l-.136.085A16.1,16.1,0,0,1,133-9.418v-1.836l-.085-.085-1.445.034v-3.162l-.1-.1H129.45l-.085.1v3.179l-1.938-.051-.1.1v1.853l.119.1,1.836-.051a20.38,20.38,0,0,1-2.244,5.253l1.037,1.7a.329.329,0,0,0,.255.187.23.23,0,0,0,.2-.153,15.965,15.965,0,0,0,.884-2.261L129.263,1.7h2.329l-.119-6.358v-.833c.221.408.408.8.6,1.224l.153.017L133.5-5.338l.034-.17-.2-.357,2.176-.051Zm.408-1.955H135.5l-2.244-.051-.1.1v1.683a12.332,12.332,0,0,0-1.105-1.513h-.17l-.408.272V-9.316l1.462.034c-.034.068-.085.136-.136.221l1.6.884a.636.636,0,0,0,.255.085.2.2,0,0,0,.187-.119c.289-.527.544-1.054.782-1.6h1.445Zm19.6-3.808c-.017-.816-.034-1.683-.034-2.635l-.119-.119h-2.261l-.1.136c0,.918.017,1.785.034,2.618H147.9l-2.5-.051-.1.1v1.955l.119.1,2.482-.051h6.392a22.979,22.979,0,0,0,1.6,7.888c1.173,2.584,2.295,3.3,3.383,3.3,1.173,0,2.04-.986,2.295-3.264a.448.448,0,0,0-.221-.442l-1.5-1.224c-.255,1.853-.425,2.193-.629,2.193s-.646-.493-1.258-1.972a19.546,19.546,0,0,1-1.224-6.477h2.125l2.4.051.1-.085v-1.989l-.1-.085-2.227.051,1.241-.986.034-.187a7.809,7.809,0,0,0-1.751-1.6l-.17.017-1.36,1.037v.153a8.679,8.679,0,0,1,1.479,1.564Zm-5.508,6.052h.34l2.193.051.1-.085V-7.6l-.1-.085-2.193.051h-3.2l-2.142-.051-.1.1v1.9l.119.1,2.125-.051h.425v3.859c-1.122.17-2.244.323-3.315.459l-.1.136.816,1.989.136.1c3.077-.527,5.661-1.054,7.786-1.6.289-.068.408-.187.408-.493l.034-1.6c-.986.2-2.125.425-3.332.612Zm23.953-2.465q.944.637,1.989,1.224a.593.593,0,0,0,.306.1c.136,0,.289-.085.476-.306l1.6-1.819a20.282,20.282,0,0,1-7.225-4.607c.085-.153.187-.289.289-.442l-.051-.17-2.431-.612-.187.051a17.776,17.776,0,0,1-7.089,6.29l1.666,1.649a.362.362,0,0,0,.272.119.872.872,0,0,0,.408-.153c.7-.425,1.36-.85,1.972-1.309v1.02l.119.1L169.111-7h3.995l1.9.051.1-.085Zm-2.006-.969h-3.995l-.748-.017a18.5,18.5,0,0,0,2.6-2.686,26.35,26.35,0,0,0,2.822,2.686Zm2.635,5.338,2.754.051.1-.085V-5.763l-.1-.085-2.754.051h-9.265l-2.754-.051-.1.1v1.972l.119.1,2.737-.051h1.581a22.382,22.382,0,0,1-1.428,2.856c-.816.017-1.666.034-2.618.051l-.119.153.7,2.006.153.085c4.012-.255,6.97-.493,10.676-.918.306.357.6.731.884,1.122l.17.017L178.206.2l.017-.136a25.129,25.129,0,0,0-3.995-3.706l-.153.017-1.666.969-.034.153c.493.391.952.8,1.411,1.241-1.513.119-3.026.238-4.539.289a24.044,24.044,0,0,0,1.513-2.754ZM185.6-6.1v-.51a16.422,16.422,0,0,0,2.278-4.046.6.6,0,0,0,.051-.238.465.465,0,0,0-.119-.306l-.9-.867-1.037.051H185.6v-2.448l-.1-.136h-2.074l-.119.119v2.465l-2.023-.051-.1.1V-10l.1.136,2.074-.034h1.649a13.632,13.632,0,0,1-4.318,4.93l1.139,1.683a.3.3,0,0,0,.238.153.544.544,0,0,0,.289-.136,11.006,11.006,0,0,0,.952-.85v1.649l-.085,4.182h2.465L185.6-2.465V-4.743a12.5,12.5,0,0,1,1.19,1.462l.221.017,1.428-1.428.017-.17a12.7,12.7,0,0,0-2.074-1.8l-.2-.017Zm7.378-3.06V-14.3l-.119-.119h-2.176l-.119.136v5.117h-.748l-2.244-.051-.1.1v2.006l.119.1,2.227-.051h.748v5.916h-1.581L186.74-1.19l-.1.085V.918l.119.1,2.227-.051h5.644l2.057.051L196.8.9V-1.105l-.1-.085-2.074.051h-1.649V-7.055h.986L196.209-7l.1-.085v-2.04l-.1-.085-2.244.051Z" transform="translate(37 69.391)" fill="#fff"/>
    <path d="M.854-7.173H5.83v.879h-4v2.178H5.347v.854H1.826V0H.854ZM19.705-3.887a1.883,1.883,0,0,0,1.082-.273,1.113,1.113,0,0,0,.4-.986,1.058,1.058,0,0,0-.557-1.045,1.819,1.819,0,0,0-.8-.146H17.459v2.451ZM16.487-7.173h3.32a3.311,3.311,0,0,1,1.353.239,1.694,1.694,0,0,1,1.011,1.694A1.905,1.905,0,0,1,21.9-4.185a1.923,1.923,0,0,1-.745.659,1.467,1.467,0,0,1,.632.449,1.613,1.613,0,0,1,.237.9l.034.962a2.957,2.957,0,0,0,.068.61.6.6,0,0,0,.313.439V0H21.253a.9.9,0,0,1-.078-.239,4.593,4.593,0,0,1-.049-.566L21.067-2a1,1,0,0,0-.522-.942,2.161,2.161,0,0,0-.874-.132H17.459V0h-.972Zm16.7,0h5.229v.879H34.132v2.178h3.96v.83h-3.96V-.854h4.355V0h-5.3Zm16.17,0h5.229v.879H50.3v2.178h3.96v.83H50.3V-.854h4.355V0h-5.3Zm16.053,0H66.8l2.061,6.064,2.046-6.064h1.377V0h-.923V-4.233q0-.22.01-.728t.01-1.089L69.333,0h-.962L66.311-6.05v.22q0,.264.012.8t.012.793V0h-.928ZM86.943-2.939,85.854-6.108,84.7-2.939Zm-1.6-4.233h1.1L89.048,0H87.983l-.728-2.148H84.419L83.643,0h-1Zm14.085,0h1.147L104.2-1.362V-7.173h.923V0h-1.089l-3.677-5.806V0h-.928Zm32.521,5.034a3.037,3.037,0,0,1-.269,1.411,1.957,1.957,0,0,1-1.895.918,2.2,2.2,0,0,1-1.377-.437,1.848,1.848,0,0,1-.571-1.555v-.513h.913V-1.8a1.3,1.3,0,0,0,.261.881,1.031,1.031,0,0,0,.813.3,1,1,0,0,0,1.016-.532,3.464,3.464,0,0,0,.146-1.235v-4.78h.962Zm14.661-.8-1.089-3.169-1.157,3.169Zm-1.6-4.233h1.1L148.718,0h-1.064l-.728-2.148h-2.837L143.313,0h-1Zm14.178,0h3.228a2.188,2.188,0,0,1,1.543.54,1.958,1.958,0,0,1,.586,1.516,2.2,2.2,0,0,1-.522,1.462,1.98,1.98,0,0,1-1.606.623h-2.256V0h-.972Zm4.375,2.061a1.079,1.079,0,0,0-.586-1.074,2.116,2.116,0,0,0-.884-.151h-1.934v2.485H162.1a1.848,1.848,0,0,0,1.062-.278A1.1,1.1,0,0,0,163.569-5.112Zm14.646,2.173-1.089-3.169L175.97-2.939Zm-1.6-4.233h1.1L180.32,0h-1.064l-.728-2.148h-2.837L174.915,0h-1Zm14.085,0h1.147l3.623,5.811V-7.173h.923V0h-1.089l-3.677-5.806V0H190.7Z" transform="translate(39 89.391)" fill="#fff"/>
    <circle cx="3" cy="3" r="3" transform="translate(153 83.391)" fill="#eb2935"/>
  </g>
</svg>
