<svg xmlns="http://www.w3.org/2000/svg" width="36" height="35.001" viewBox="0 0 36 35.001">
  <path id="freemanIconEarth" data-name="アイコン-地球" d="M-2682.484-77.23c.4,0,.811-.015,1.213-.044l.094,1.225c-.432.032-.872.048-1.305.049Zm-2.606,1.045.186-1.216c.4.058.8.1,1.206.13l-.093,1.226C-2684.222-76.077-2684.66-76.124-2685.09-76.185Zm5.024-1.22c.4-.059.8-.131,1.192-.219l.281,1.2c-.422.094-.854.173-1.285.236Zm-7.575.66.371-1.175c.386.115.78.217,1.173.3l-.28,1.2C-2686.8-76.513-2687.225-76.622-2687.64-76.746Zm9.939-1.183c.384-.114.769-.246,1.144-.389l.463,1.143c-.406.155-.821.3-1.235.42Zm-12.376.256.548-1.107c.362.169.737.328,1.113.471l-.461,1.145C-2689.282-77.319-2689.686-77.49-2690.077-77.674Zm14.631-1.118c.362-.169.723-.355,1.071-.551l.635,1.064c-.377.212-.765.411-1.156.595Zm-16.9-.152.712-1.015c.333.22.679.431,1.028.627l-.633,1.064C-2691.611-78.478-2691.984-78.706-2692.343-78.944Zm18.994-1.027c.332-.22.66-.456.976-.7l.79.96c-.34.264-.694.518-1.052.755Zm-21.039-.555.859-.9c.3.266.607.526.922.769l-.788.961C-2693.734-79.96-2694.068-80.239-2694.388-80.526Zm22.934-.915c.3-.266.584-.547.859-.834l.927.836c-.3.31-.607.611-.925.9ZM-2694.962-93a12.3,12.3,0,0,1,12.462-12.106A12.3,12.3,0,0,1-2670.038-93,12.3,12.3,0,0,1-2682.5-80.894,12.3,12.3,0,0,1-2694.962-93Zm13.095,10.8c1.407-.365,2.663-1.921,3.514-4.147a30.059,30.059,0,0,0-3.514-.282Zm-4.78-4.146c.852,2.227,2.108,3.783,3.515,4.146v-4.429A29.9,29.9,0,0,0-2686.647-86.351Zm7.59,3.7a11.267,11.267,0,0,0,4.674-2.866q-1.33-.377-2.69-.628A10.858,10.858,0,0,1-2679.057-82.65Zm-11.559-2.865a11.272,11.272,0,0,0,4.672,2.864,10.866,10.866,0,0,1-1.984-3.492C-2688.833-85.975-2689.73-85.766-2690.616-85.514Zm13.923-1.81a30.463,30.463,0,0,1,3.195.786,10.633,10.633,0,0,0,2.177-5.846h-4.64A20.771,20.771,0,0,1-2676.693-87.324Zm-14.809.786a30.789,30.789,0,0,1,3.194-.785,20.79,20.79,0,0,1-.732-5.062h-4.639A10.632,10.632,0,0,0-2691.5-86.539Zm4.459-1a31.3,31.3,0,0,1,3.91-.327v-4.522h-4.642A19.587,19.587,0,0,0-2687.042-87.537Zm5.175-.327a31.444,31.444,0,0,1,3.91.326,19.619,19.619,0,0,0,.731-4.847h-4.641Zm5.175-10.812a20.82,20.82,0,0,1,.731,5.061h4.64a10.619,10.619,0,0,0-2.176-5.845A30.976,30.976,0,0,1-2676.692-98.675Zm-5.175.538v4.522h4.641a19.587,19.587,0,0,0-.731-4.848A31.273,31.273,0,0,1-2681.867-98.137Zm-5.906,4.522h4.642v-4.522a31.3,31.3,0,0,1-3.91-.327A19.594,19.594,0,0,0-2687.774-93.614Zm-5.905,0h4.639a20.79,20.79,0,0,1,.732-5.062,31.038,31.038,0,0,1-3.195-.785A10.626,10.626,0,0,0-2693.679-93.614Zm11.812-5.752a30.059,30.059,0,0,0,3.514-.282c-.85-2.227-2.106-3.784-3.514-4.147Zm-4.78-.283a29.9,29.9,0,0,0,3.515.283v-4.43C-2684.539-103.433-2685.8-101.876-2686.647-99.649Zm9.575-.207q1.358-.251,2.689-.628a11.269,11.269,0,0,0-4.675-2.867A10.868,10.868,0,0,1-2677.072-99.856Zm-13.545-.629q1.329.377,2.688.628a10.866,10.866,0,0,1,1.984-3.494A11.265,11.265,0,0,0-2690.617-100.485Zm-7.793,17.189a2.29,2.29,0,0,1,2.319-2.254,2.29,2.29,0,0,1,2.32,2.254,2.29,2.29,0,0,1-2.32,2.253A2.289,2.289,0,0,1-2698.409-83.3Zm1.265,0a1.041,1.041,0,0,0,1.054,1.024,1.04,1.04,0,0,0,1.054-1.024,1.04,1.04,0,0,0-1.054-1.024A1.041,1.041,0,0,0-2697.145-83.3Zm27.341.127c.252-.306.5-.626.721-.949l1.045.693c-.245.347-.506.692-.777,1.022Zm1.368-1.947c.2-.338.393-.689.569-1.042l1.139.533c-.189.382-.395.76-.612,1.125Zm-30.349-1.647,1.178-.452c.147.363.311.725.487,1.078l-1.139.536C-2698.448-85.981-2698.625-86.372-2698.785-86.763Zm31.4-.477c.146-.364.281-.739.4-1.114l1.209.362c-.129.4-.273.809-.433,1.2Zm-32.177-1.949,1.233-.274c.09.382.2.764.316,1.138l-1.209.364C-2699.347-88.365-2699.461-88.778-2699.558-89.189Zm32.889-.3c.09-.38.165-.769.224-1.157l1.252.181c-.065.419-.146.84-.242,1.249Zm-33.281-2.208,1.261-.093c.031.391.077.785.136,1.171l-1.251.184C-2699.868-90.854-2699.917-91.279-2699.949-91.7Zm33.639-.121c.03-.39.044-.787.044-1.179v-.057H-2665V-93c0,.422-.017.85-.048,1.27ZM-2700-93.009c0-.4.016-.821.045-1.229l1.262.088c-.028.38-.042.766-.042,1.149l-1.265.03Zm33.547-2.4,1.251-.185c.065.414.116.838.149,1.262l-1.261.1C-2666.345-94.627-2666.392-95.021-2666.453-95.405Zm-33.358-.1c.063-.419.144-.839.239-1.25l1.234.271c-.089.381-.163.77-.222,1.158ZM-2667-97.7l1.207-.366c.13.4.244.815.342,1.227l-1.232.276C-2666.771-96.944-2666.878-97.327-2667-97.7Zm-32.239-.28c.127-.4.272-.807.431-1.2l1.178.446c-.147.366-.282.741-.4,1.114Zm31.345-1.909,1.138-.537c.191.381.368.772.527,1.162l-1.176.453C-2667.551-99.173-2667.715-99.535-2667.892-99.888Zm-30.393-.459c.188-.38.394-.759.61-1.125l1.1.614c-.2.339-.391.69-.566,1.043Zm29.172-1.576,1.042-.7c.245.347.481.707.7,1.072l-1.092.619C-2668.665-101.266-2668.884-101.6-2669.112-101.923Zm-27.865-.626c.244-.348.505-.693.775-1.023l.99.765c-.252.307-.494.626-.721.95Zm26.347-1.211.925-.839c.3.308.584.631.856.96l-.986.77C-2670.088-103.174-2670.356-103.475-2670.63-103.76Zm-24.72-.777c.3-.311.606-.613.923-.9l.863.9c-.295.267-.583.548-.856.836Zm20.5-1.684a2.289,2.289,0,0,1,2.319-2.253,2.289,2.289,0,0,1,2.32,2.253,2.29,2.29,0,0,1-2.32,2.254A2.29,2.29,0,0,1-2674.853-106.221Zm1.265,0a1.041,1.041,0,0,0,1.054,1.024,1.04,1.04,0,0,0,1.054-1.024,1.041,1.041,0,0,0-1.054-1.024A1.041,1.041,0,0,0-2673.588-106.221Zm-19.849-.048c.339-.265.693-.519,1.049-.757l.716,1.013c-.332.22-.66.457-.975.7Zm2.154-1.436c.376-.212.764-.413,1.155-.6l.552,1.106c-.361.171-.722.356-1.07.554Zm14.674,0,.459-1.145c.4.153.808.323,1.2.506l-.546,1.109C-2675.86-107.4-2676.235-107.56-2676.61-107.7Zm-12.323-1.112c.4-.155.818-.3,1.233-.423l.376,1.174c-.385.117-.77.248-1.144.392Zm10,.425.277-1.2c.423.092.849.2,1.264.324l-.369,1.175C-2678.142-108.2-2678.537-108.3-2678.929-108.389Zm-7.507-1.179c.422-.094.855-.175,1.285-.239l.191,1.215c-.4.059-.8.133-1.191.221Zm5.107.836.09-1.225c.434.03.872.076,1.3.137l-.185,1.216C-2680.52-108.661-2680.926-108.7-2681.329-108.732Zm-2.523-1.219c.432-.032.872-.049,1.306-.049l0,1.229c-.4,0-.812.016-1.214.047Z" transform="translate(2700.5 110.501)" fill="#eb2935" stroke="rgba(0,0,0,0)" stroke-miterlimit="10" stroke-width="1"/>
</svg>
