<svg xmlns="http://www.w3.org/2000/svg" width="29" height="29.001" viewBox="0 0 29 29.001">
  <path id="freemanIconCompany" data-name="アイコン-会社" d="M-2672.312-1293.947a.588.588,0,0,1-.587-.587.588.588,0,0,1,.587-.587h1.14v-26.241a.572.572,0,0,1,.037-.2.59.59,0,0,1,.549-.382.586.586,0,0,1,.2.038l13.357,5.009a.588.588,0,0,1,.381.547v3.028l9.615,3.206a.586.586,0,0,1,.4.556v14.442h1.141a.588.588,0,0,1,.587.587.588.588,0,0,1-.587.587Zm21.758-6.184a.586.586,0,0,1,.585.586v4.424h2.167v-14.02l-8.846-2.949v16.969h2.17v-4.424a.587.587,0,0,1,.586-.586Zm-2.753,5.009h2.17v-3.838h-2.17Zm-7.265-5.009a.586.586,0,0,1,.584.586v4.424h2.171l0-20.826-12.195-4.571v25.4h2.172v-4.424a.587.587,0,0,1,.586-.586Zm-2.755,5.009h2.172v-3.838h-2.172Zm-3.339,0h2.172v-3.838h-2.172Zm12.775-7.178a.588.588,0,0,1-.587-.587.589.589,0,0,1,.587-.587h3.339a.588.588,0,0,1,.587.587.587.587,0,0,1-.587.587Zm-8.352,0a.588.588,0,0,1-.587-.587.588.588,0,0,1,.587-.587h1.673a.588.588,0,0,1,.586.587.587.587,0,0,1-.586.587Zm-5.009,0a.587.587,0,0,1-.587-.587.588.588,0,0,1,.587-.587h1.673a.588.588,0,0,1,.587.587.587.587,0,0,1-.587.587Zm13.36-3.336a.589.589,0,0,1-.587-.587.589.589,0,0,1,.587-.587h3.339a.588.588,0,0,1,.587.587.588.588,0,0,1-.587.587Zm-8.352,0a.588.588,0,0,1-.587-.587.588.588,0,0,1,.587-.587h1.673a.588.588,0,0,1,.586.587.588.588,0,0,1-.586.587Zm-5.009,0a.588.588,0,0,1-.587-.587.588.588,0,0,1,.587-.587h1.673a.588.588,0,0,1,.587.587.588.588,0,0,1-.587.587Zm5.009-3.339a.588.588,0,0,1-.587-.587.587.587,0,0,1,.587-.587h1.673a.587.587,0,0,1,.586.587.587.587,0,0,1-.586.587Zm-5.009,0a.587.587,0,0,1-.587-.587.587.587,0,0,1,.587-.587h1.673a.587.587,0,0,1,.587.587.587.587,0,0,1-.587.587Zm5.009-3.34a.588.588,0,0,1-.587-.587.588.588,0,0,1,.587-.586h1.673a.588.588,0,0,1,.586.586.587.587,0,0,1-.586.587Zm-5.009,0a.588.588,0,0,1-.587-.587.588.588,0,0,1,.587-.586h1.673a.588.588,0,0,1,.587.586.588.588,0,0,1-.587.587Z" transform="translate(2673.399 1322.448)" fill="#eb2935" stroke="rgba(0,0,0,0)" stroke-miterlimit="10" stroke-width="1"/>
</svg>
