<svg xmlns="http://www.w3.org/2000/svg" width="27.035" height="33.128" viewBox="0 0 27.035 33.128">
  <path id="freemanIconOPin" data-name="アイコン-ピン" d="M-3394.7-1351.181a12.537,12.537,0,0,1-5.146-16.948l.091-.17-.105-.162a6.932,6.932,0,0,1-1.123-3.616,4.834,4.834,0,0,1,2.308-4.094,4.792,4.792,0,0,1,2.495-.7,4.779,4.779,0,0,1,4.111,2.308l.123.2.23-.056a12.588,12.588,0,0,1,2.917-.343,12.533,12.533,0,0,1,3.99.651l.7.233-.3-.673a6.293,6.293,0,0,1-.531-2.474,4.814,4.814,0,0,1,4.808-4.807,4.812,4.812,0,0,1,4.806,4.81c0,2.712-2.585,5.441-3.7,6.489l-.219.207.189.235a12.5,12.5,0,0,1,1.3,13.761,12.512,12.512,0,0,1-11.058,6.626A12.543,12.543,0,0,1-3394.7-1351.181Zm-4.426-15.505a11.247,11.247,0,0,0-.837,5.769l.033.288h3.079a5.5,5.5,0,0,1,5.481,5.482v3.868l.271.047a17.189,17.189,0,0,0,2.292.238,11.271,11.271,0,0,0,11.181-9.928l.044-.365h-2.917l-.052.265c-.614,3.174-4.165,6.089-4.316,6.213l-.372.3-.394-.275c-.181-.127-4.442-3.161-4.442-7.141a4.808,4.808,0,0,1,1.5-3.486l.1-.1v-7.979h-.326a11.378,11.378,0,0,0-2.388.254l-.3.065.052.307a4.874,4.874,0,0,1,.065.79c0,3.5-4.226,6.967-4.406,7.113l-.373.3-.394-.275a13.351,13.351,0,0,1-2.043-1.846l-.341-.378Zm-.418,7.754a11.271,11.271,0,0,0,6.447,7.084l.451.188v-3.488a4.218,4.218,0,0,0-4.206-4.207h-2.824Zm10.743-2.993c0,2.458,2.061,4.572,3.289,5.615l.221.188.212-.2c.784-.732,3.342-3.3,3.342-5.6a3.542,3.542,0,0,0-3.531-3.529v0A3.543,3.543,0,0,0-3388.8-1361.926Zm8.254-.9.051.265h2.948l-.02-.346a11.23,11.23,0,0,0-3.084-7.082,14.7,14.7,0,0,1-1.447-1.284,11.26,11.26,0,0,0-4.707-2.039l-.385-.069v7.03l.428-.139a4.858,4.858,0,0,1,.591-.153,4.851,4.851,0,0,1,.911-.087A4.81,4.81,0,0,1-3380.547-1362.825Zm-19.16-9.246c0,2.457,2.061,4.573,3.289,5.614l.222.188.212-.2c.784-.731,3.342-3.3,3.342-5.6a3.542,3.542,0,0,0-3.532-3.533h0A3.543,3.543,0,0,0-3399.708-1372.071Zm16.047-4.949v.326h.014a7.625,7.625,0,0,0,2.365,4.438c.354.272.659.526.951.8l.224.205.222-.208c.772-.729,3.287-3.282,3.287-5.557a3.536,3.536,0,0,0-3.531-3.532A3.537,3.537,0,0,0-3383.661-1377.02Zm-2.251,15.924v-1.272h1.275v1.272Zm-10.908-10.143v-1.274h1.274v1.274Zm16.047-4.951v-1.276h1.274v1.276Z" transform="translate(3401.858 1382.329)" fill="#eb2935" stroke="rgba(0,0,0,0)" stroke-miterlimit="10" stroke-width="1"/>
</svg>
