<svg xmlns="http://www.w3.org/2000/svg" width="47.194" height="51.646" viewBox="0 0 47.194 51.646">
  <g transform="translate(-310.897 -172.129)">
    <path d="M357.162,388.421H311.826a.929.929,0,1,1,0-1.857h45.336a.929.929,0,0,1,0,1.857Z" transform="translate(0 -164.647)" fill="#fff"/>
    <path d="M366.8,223.775a.929.929,0,0,1-.929-.929v-48.86h-35.12v48.86a.929.929,0,1,1-1.857,0V173.058a.929.929,0,0,1,.929-.929H366.8a.929.929,0,0,1,.929.929v49.788A.929.929,0,0,1,366.8,223.775Z" transform="translate(-13.82)" fill="#fff"/>
    <path d="M366.835,208.611H349.391a.929.929,0,0,1-.929-.929v-6.451a.929.929,0,0,1,.929-.929h17.444a.929.929,0,0,1,.929.929v6.451A.929.929,0,0,1,366.835,208.611Zm-16.515-1.857h15.586V202.16H350.319Z" transform="translate(-28.843 -21.632)" fill="#fff"/>
    <path d="M414.182,254.785H396.739a.929.929,0,0,1-.929-.929v-6.451a.929.929,0,0,1,.929-.929h17.444a.929.929,0,0,1,.929.929v6.451A.929.929,0,0,1,414.182,254.785Zm-16.515-1.857h15.586v-4.593H397.667Z" transform="translate(-65.198 -57.086)" fill="#fff"/>
    <path d="M449.362,208.611h-6.451a.929.929,0,0,1-.929-.929v-6.451a.929.929,0,0,1,.929-.929h6.451a.929.929,0,0,1,.929.929v6.451A.929.929,0,0,1,449.362,208.611Zm-5.522-1.857h4.593V202.16H443.84Z" transform="translate(-100.65 -21.632)" fill="#fff"/>
    <path d="M355.841,254.785h-6.451a.929.929,0,0,1-.929-.929v-6.451a.929.929,0,0,1,.929-.929h6.451a.929.929,0,0,1,.929.929v6.451A.929.929,0,0,1,355.841,254.785Zm-5.522-1.857h4.593v-4.593h-4.593Z" transform="translate(-28.843 -57.086)" fill="#fff"/>
    <path d="M355.841,301.741h-6.451a.929.929,0,0,1-.929-.929v-6.451a.929.929,0,0,1,.929-.929h6.451a.929.929,0,0,1,.929.929v6.451A.929.929,0,0,1,355.841,301.741Zm-5.522-1.857h4.593V295.29h-4.593Z" transform="translate(-28.843 -93.139)" fill="#fff"/>
    <path d="M402.015,301.741h-6.451a.929.929,0,0,1-.929-.929v-6.451a.929.929,0,0,1,.929-.929h6.451a.929.929,0,0,1,.929.929v6.451A.929.929,0,0,1,402.015,301.741Zm-5.522-1.857h4.593V295.29h-4.593Z" transform="translate(-64.296 -93.139)" fill="#fff"/>
    <path d="M402.015,352.271h-6.451a.929.929,0,0,1-.929-.929V340.411a.929.929,0,0,1,.929-.929h6.451a.929.929,0,0,1,.929.929v10.932A.929.929,0,0,1,402.015,352.271Zm-5.522-1.857h4.593v-9.074h-4.593Z" transform="translate(-64.296 -128.496)" fill="#fff"/>
    <path d="M449.362,301.741h-6.451a.929.929,0,0,1-.929-.929v-6.451a.929.929,0,0,1,.929-.929h6.451a.929.929,0,0,1,.929.929v6.451A.929.929,0,0,1,449.362,301.741Zm-5.522-1.857h4.593V295.29H443.84Z" transform="translate(-100.65 -93.139)" fill="#fff"/>
  </g>
</svg>
