<svg xmlns="http://www.w3.org/2000/svg" width="59.12" height="59.129" viewBox="0 0 59.12 59.129">
  <g transform="translate(-585.938 -148.259)">
    <path d="M699.935,224.007a.994.994,0,0,1-.957-1.258l.523-1.892a.994.994,0,0,1,.405-.561l4.634-3.1,1.178-3.2a.992.992,0,0,1,.513-.557l3.087-1.438,2.612-4.992-4.149-2.445a.987.987,0,0,1-.242-.2l-2.315-2.635-1.14-.133a1.027,1.027,0,0,1-.143-.027l-2.986-.8L698.6,200.4l-2.082.581a.992.992,0,0,1-1.008-.295l-1.216-1.359-1.13-.33a.993.993,0,0,1-.714-1.013l.061-1.019-.176.006-.684.784a.993.993,0,0,1-1.715-.426l-.55-2.335a.993.993,0,0,1,.543-1.126l2.219-1.048a.993.993,0,0,1,.84,0l2.076.957h.229l.26-1.056a.993.993,0,0,1,.2-.4l3.411-4.086a.989.989,0,0,1,.314-.25l4.743-2.4a.99.99,0,0,1,.577-.1l1.677.219-2.923-2.978a.992.992,0,0,1-.179-.251l-1.012-2.019H701.1a.994.994,0,0,1-.5-.137l-.994-.584-1.367-.2-.356,2.035a.993.993,0,0,1-1.167.8l-3.047-.587a.993.993,0,0,1-.8-.853l-.232-1.874a.993.993,0,0,1,.768-1.091l1.728-.388.632-2.738a.993.993,0,0,1,1.345-.7l2.317.95a.975.975,0,0,1,.134.067l-.795-.773a.994.994,0,0,1-.3-.762l.062-1.225a.993.993,0,0,1,1.182-.925l2.692.525a.993.993,0,0,1,.473.236l2.274,2.041a1,1,0,0,1,.263.381l.7,1.812q.011.029.021.06l.453,1.438,3.255,2.938.869-1.4a.994.994,0,0,1,.757-.465l4.443-.388.745-.242a.993.993,0,0,1,1.131.39,29.513,29.513,0,0,1-1.438,34.863,29.738,29.738,0,0,1-16.178,10.3A.98.98,0,0,1,699.935,224.007Zm7.5-8.935-1.148,3.115a.992.992,0,0,1-.38.482l-4.208,2.814a27.783,27.783,0,0,0,13.089-9.046,27.53,27.53,0,0,0,1.75-31.888l-.13.042a.984.984,0,0,1-.221.045l-4.062.355-1.015,1.631a1,1,0,0,1-1.141.423l-.935-.293a.991.991,0,0,1-.368-.21l-3.622-3.27a1,1,0,0,1-.282-.439l-.525-1.666-.6-1.561-1.892-1.7-.8-.156,1.839,1.789c.023.022.044.045.065.07l1.287,1.519a.993.993,0,0,1-.3,1.523l-.183.1a1,1,0,0,1,.2.275l1.217,2.427,3.283,3.345a.994.994,0,0,1,.268.876l-.248,1.341a.991.991,0,0,1-1.105.8l-2.431-.317-4.286,2.168-3.132,3.752-.39,1.589a.994.994,0,0,1-.965.756h-1.226a.191.191,0,1,0-.286.236l-.078,1.315.642.187a.994.994,0,0,1,.462.292l.993,1.11,1.694-.473a1,1,0,0,1,.42-.025l2.622.409a.943.943,0,0,1,.1.022l2.967.8,1.446.169a.993.993,0,0,1,.631.331l2.462,2.8,4.826,2.843a.993.993,0,0,1,.376,1.317l-3.206,6.127a.994.994,0,0,1-.461.44Zm-14.864-20.253-.365.172.691-.022Zm2.172-14.84,1.345.259.152-.868-.071.019-1.459.328Zm21.359-.332h0Zm-18.688-2.221a.974.974,0,0,1,.144.01l.429.063c0-.032,0-.065,0-.1l.031-.724-.59-.242-.234,1.015A.992.992,0,0,1,697.42,177.426Zm3.664-.183.727.212-.444-.524-1.482-1.442a.992.992,0,0,1,.155.577l-.031.728Z" transform="translate(-77.736 -17.444)" fill="#fff"/>
    <path d="M615.492,248.868A29.517,29.517,0,0,1,590,204.405a.992.992,0,0,1,.635-.466l2.051-.471a.993.993,0,0,1,.837,1.748l-.979.772.219.144h2.82l4.681-.837a.994.994,0,0,1,1.021.457l3,4.877a.994.994,0,0,1,.148.521v4.237l2.805,3.806a.993.993,0,0,1,1.883-.318l1.372,2.868,4.281.959a.993.993,0,0,1,.487.268l1.965,1.973,1.67.5a.993.993,0,0,1,.608,1.381l-1.691,3.523,1.838,3.409a1.016,1.016,0,0,1,.078.189c1.355,4.579,1.355,4.728,1.355,4.9a51.806,51.806,0,0,1-1.3,5.393l.288,3.3a.993.993,0,0,1-.872,1.073A31.525,31.525,0,0,1,615.492,248.868ZM590.757,207.19a27.529,27.529,0,0,0,24.736,39.691c.887,0,1.754-.061,2.516-.136l-.218-2.5a.982.982,0,0,1,.027-.332c.531-2.079,1.116-4.406,1.262-5.053-.159-.615-.775-2.733-1.223-4.249l-2.029-3.763a.994.994,0,0,1-.021-.9l1.408-2.934-.8-.242a.994.994,0,0,1-.416-.25l-1.938-1.946-4.469-1a.993.993,0,0,1-.679-.541l-.392-.82a.992.992,0,0,1-.292.044h-.693a.993.993,0,0,1-.8-.4l-4.093-5.552a.993.993,0,0,1-.194-.589v-4.282l-2.5-4.061-4.1.734a1.006,1.006,0,0,1-.175.015h-3.206a.992.992,0,0,1-.547-.164Z" transform="translate(0 -41.48)" fill="#fff"/>
    <path d="M613.27,160.639a1,1,0,0,1-.776-1.625,29.468,29.468,0,0,1,35.383-7.915.993.993,0,0,1-.278,1.882l-1.03.152a.994.994,0,0,1-.292,0l-2.42-.362-1.567,1.042-1.319,1.463a.992.992,0,0,1-.646.324l-5.1.471a1,1,0,0,1-.253-.009l-1.457-.241-1.084,1.71a.993.993,0,0,1-.782.459l-4.2.241a1,1,0,0,1-.334-.038l-2.242-.65L622.9,158.63a1,1,0,0,1-.343.114l-5.007.693-4,1.162A.988.988,0,0,1,613.27,160.639Zm22.015-10.393a27.44,27.44,0,0,0-18.828,7.439l.6-.175a.98.98,0,0,1,.141-.03l4.9-.677,2.176-1.2a.992.992,0,0,1,.756-.084l2.474.717,3.523-.2,1.164-1.834a.993.993,0,0,1,1-.448l1.979.327,4.584-.423,1.143-1.267a1,1,0,0,1,.187-.162l1.488-.99A27.162,27.162,0,0,0,635.285,150.246Z" transform="translate(-19.793)" fill="#fff"/>
  </g>
</svg>
