<svg xmlns="http://www.w3.org/2000/svg" width="71.668" height="58.357" viewBox="0 0 71.668 58.357">
  <g transform="translate(-962.689 -145.994)">
    <path d="M985.739,176.957a1.87,1.87,0,0,1-.375-.038l-15.235-3.108a1.9,1.9,0,0,1-1.417-1.255l-4.926-14.747a1.9,1.9,0,0,1,.378-1.855l10.309-11.64a1.9,1.9,0,0,1,1.8-.6l15.235,3.107a1.9,1.9,0,0,1,1.417,1.255l4.926,14.747h0a1.9,1.9,0,0,1-.378,1.855l-10.308,11.64A1.9,1.9,0,0,1,985.739,176.957Zm-9.85-31.644a.258.258,0,0,0-.192.087l-10.309,11.64a.258.258,0,0,0-.051.252l4.926,14.747a.257.257,0,0,0,.192.17l15.235,3.108a.257.257,0,0,0,.244-.081l10.308-11.64a.257.257,0,0,0,.051-.251h0L991.368,148.6a.257.257,0,0,0-.192-.17l-15.235-3.107A.253.253,0,0,0,975.89,145.313Zm4.938,23.276a8.338,8.338,0,0,1-1.665-.169h0a8.224,8.224,0,1,1,1.665.169Zm-1.337-1.772a6.642,6.642,0,1,0-4.205-2.843,6.587,6.587,0,0,0,4.205,2.843Z" transform="translate(-1 2.318)" fill="#fff"/>
    <path d="M1090.193,225.54a1.956,1.956,0,0,1-1.391-.576l-10.225-10.225a1.962,1.962,0,0,1-.051-2.732l.176-.188a.817.817,0,0,1,.945-.182l16.372,7.668a.818.818,0,0,1,.21,1.34l-4.7,4.369A1.965,1.965,0,0,1,1090.193,225.54Zm-10.542-12.095a.334.334,0,0,0,.083.136l10.225,10.225a.332.332,0,0,0,.462.008l3.807-3.542Zm17.836,5.73a.816.816,0,0,1-.347-.077L1080.6,211.35a.818.818,0,0,1-.252-1.3l4.019-4.32a.818.818,0,0,1,.946-.184l16.959,7.943a.818.818,0,0,1,.211,1.34l-4.436,4.126A.819.819,0,0,1,1097.487,219.175Zm-15.179-8.831,15.026,7.038,3.144-2.924-15.321-7.175Zm21.43,3.017a.817.817,0,0,1-.347-.077l-17.13-8.023a.818.818,0,0,1-.252-1.3l4.021-4.32a.819.819,0,0,1,.946-.184l17.544,8.218a.818.818,0,0,1,.21,1.34l-4.435,4.126A.818.818,0,0,1,1103.739,213.361Zm-15.766-9.106,15.613,7.313,3.143-2.924-15.906-7.45Zm31.514,4.328a1.954,1.954,0,0,1-1.392-.577l-22.56-22.56a1.954,1.954,0,0,1-.577-1.391,1.982,1.982,0,0,1,.577-1.392,14.6,14.6,0,0,1,10.351-4.4,13.6,13.6,0,0,1,9.672,4.048l.075.075a1.971,1.971,0,0,1,.092,2.683l-3.609,4.144,2.218,2.218,4.144-3.609a1.97,1.97,0,0,1,2.684.093l.074.074a13.57,13.57,0,0,1,4.042,10.068h0a14.68,14.68,0,0,1-4.4,9.955A1.955,1.955,0,0,1,1119.487,208.582Zm-13.6-28.688a12.979,12.979,0,0,0-9.193,3.925.333.333,0,0,0-.1.235.329.329,0,0,0,.1.234l22.56,22.561a.332.332,0,0,0,.469,0A13.051,13.051,0,0,0,1123.64,198h0a11.952,11.952,0,0,0-3.563-8.864l-.074-.074a.33.33,0,0,0-.45-.016l-4.721,4.112a.818.818,0,0,1-1.116-.038l-3.3-3.3a.818.818,0,0,1-.039-1.116l4.111-4.72a.331.331,0,0,0-.015-.45l-.076-.076A11.98,11.98,0,0,0,1105.886,179.895Zm4.1,27.65a.818.818,0,0,1-.347-.077l-17.716-8.3a.818.818,0,0,1-.252-1.3l5.876-6.315a1.968,1.968,0,0,1,1.408-.627,1.948,1.948,0,0,1,1.423.574l11.654,11.654,0,0a1.97,1.97,0,0,1-.055,2.832l-1.435,1.335A.818.818,0,0,1,1109.99,207.545Zm-16.352-9.38,16.2,7.587,1.032-.96a.331.331,0,0,0,.105-.236.338.338,0,0,0-.1-.242l-11.651-11.651a.3.3,0,0,0-.224-.1.338.338,0,0,0-.252.1Z" transform="translate(-90.925 -21.189)" fill="#fff"/>
  </g>
</svg>
