<svg xmlns="http://www.w3.org/2000/svg" width="47.749" height="62.211" viewBox="0 0 47.749 62.211">
  <g transform="translate(-819.987 216.175)">
    <path d="M880.294-184.815c-7.207,0-13.07-7.034-13.07-15.68,0-7.754,1.553-15.68,13.07-15.68s13.072,7.927,13.072,15.68C893.365-191.849,887.5-184.815,880.294-184.815Zm0-29.53c-9.329,0-11.241,5.537-11.241,13.851,0,7.637,5.043,13.85,11.241,13.85s11.242-6.213,11.242-13.85C891.535-208.808,889.624-214.345,880.294-214.345Z" transform="translate(-36.432 0)" fill="#fff"/>
    <path d="M843.862-50.561c-19.917,0-23.629-7.024-23.778-7.323a.914.914,0,0,1-.1-.406l0-1.493a.913.913,0,0,1,.014-.159c0-.13.011-.391.021-.915.131-6.978.688-11.661,3.148-14.945,2.362-3.153,6.252-4.917,13.873-6.292a.915.915,0,0,1,.882.336c.069.084,1.829,2.2,5.937,2.2s5.869-2.112,5.942-2.2a.926.926,0,0,1,.878-.33c14.651,2.644,16.8,7,17.029,21.7h0c.008.542.014.774.017.873a.927.927,0,0,1,.009.126v1.1a.915.915,0,0,1-.1.407C867.492-57.585,863.779-50.561,843.862-50.561ZM821.818-58.55c.664.948,5.089,6.159,22.044,6.159,9.93,0,15.488-1.8,18.4-3.3a9.766,9.766,0,0,0,3.643-2.849v-.849q-.009-.08-.011-.169c0-.156-.009-.41-.015-.8-.214-13.538-1.733-17.357-15.041-19.84a9.918,9.918,0,0,1-6.978,2.472,9.917,9.917,0,0,1-6.978-2.472c-6.706,1.253-10.272,2.859-12.25,5.5-2.165,2.889-2.66,7.278-2.784,13.882-.008.442-.015.722-.02.891q0,.1-.014.2Zm45.912-.9h0Z" transform="translate(0 -103.403)" fill="#fff"/>
  </g>
</svg>
