<svg xmlns="http://www.w3.org/2000/svg" width="41.82" height="55.216" viewBox="0 0 41.82 55.216">
  <g transform="translate(73.185 364.348)">
    <path d="M-70.136-309.132a3.052,3.052,0,0,1-3.049-3.048V-361.3a3.052,3.052,0,0,1,3.049-3.048,3.052,3.052,0,0,1,3.049,3.048v2.514a16.24,16.24,0,0,0,13.4-.747,22.447,22.447,0,0,1,20.813.064,3.056,3.056,0,0,1,1.515,2.634v22.369a3.058,3.058,0,0,1-1.53,2.643,3.059,3.059,0,0,1-3.043,0,16.379,16.379,0,0,0-14.92.06,21.809,21.809,0,0,1-10.223,2.547H-61.1a22.786,22.786,0,0,1-5.99-.814v17.851A3.052,3.052,0,0,1-70.136-309.132Zm0-53.584a1.419,1.419,0,0,0-1.417,1.417v49.119a1.419,1.419,0,0,0,1.417,1.417,1.418,1.418,0,0,0,1.417-1.417v-18.944a.816.816,0,0,1,.336-.659.815.815,0,0,1,.73-.117,21.386,21.386,0,0,0,6.556,1.052h.016a20.193,20.193,0,0,0,9.466-2.36,17.8,17.8,0,0,1,16.495-.028,1.422,1.422,0,0,0,1.413,0A1.422,1.422,0,0,0-33-334.465v-22.369a1.42,1.42,0,0,0-.7-1.224h0a20.729,20.729,0,0,0-19.233-.029,17.919,17.919,0,0,1-15.288.6.816.816,0,0,1-.5-.751V-361.3A1.418,1.418,0,0,0-70.136-362.716Z" transform="translate(0 0)" fill="#fff"/>
  </g>
</svg>
