<svg xmlns="http://www.w3.org/2000/svg" width="76.543" height="45.363" viewBox="0 0 76.543 45.363">
  <g transform="translate(120.184 -172.129)">
    <path d="M-108.416,205.019h-9.354a2.335,2.335,0,0,1-2.414-2.414V174.543a3.134,3.134,0,0,1,.874-1.852,1.978,1.978,0,0,1,1.54-.562c.026,0,.052,0,.078,0,.34.031.751.065,1.218.1,6.845.566,13.477,1.381,15.741,3.482a2.1,2.1,0,0,1,.969,1.943c0,.022,0,.044,0,.065-.454,5.9-3.516,16.213-5.161,21.752-.528,1.776-1.026,3.456-1.073,3.789a.857.857,0,0,1-.089.345A2.57,2.57,0,0,1-108.416,205.019Zm-10.058-30.453v28.039a.63.63,0,0,0,.7.7h9.354a.9.9,0,0,0,.734-.36c.083-.468.364-1.435,1.114-3.958,1.624-5.467,4.643-15.633,5.093-21.362,0-.341-.049-.4-.151-.451a.864.864,0,0,1-.222-.16c-2.024-2.024-10.954-2.763-14.767-3.078-.454-.038-.856-.071-1.192-.1-.233,0-.241.009-.293.061A1.833,1.833,0,0,0-118.474,174.566ZM-106,203.229c0,.009,0,.018,0,.027C-106,203.246-106,203.237-106,203.229Zm5.381-25.568h0Zm-17.854-3.118v0Z" fill="#fff"/>
    <path d="M36.977,228.485h-.312a.855.855,0,0,1-.675-.33c-1.82-2.339-5.442-5.647-10.767-9.831l-.04-.033c-1.176-1.045-2.381-2.06-3.443-2.954-1.416-1.193-2.652-2.234-3.564-3.119-.164-.038-.329-.093-.49-.147a3.793,3.793,0,0,0-.373-.112h-.463a14.631,14.631,0,0,0-1.941.845.87.87,0,0,1-.112.047c-.262.087-.471.175-.673.26a4.046,4.046,0,0,1-1.78.407c-.238,0-.337.071-.578.309-1.905,2.947-4.167,3.846-6.911,2.748-.022-.009-.044-.018-.065-.029-.633-.317-1.06-.53-1.094-1.287-.343-1.8,1.6-5.172,3.678-7.254,2.5-2.5,4.489-4.193,6.658-4.887,2.118-.678,4.322-.391,7.366.958.752.282,1.519.587,2.331.91,1.9.756,3.866,1.537,6.009,2.18a.855.855,0,0,1,.5.4c1.488,2.678,4.813,11.976,7.543,19.777a.855.855,0,0,1-.807,1.137ZM26.3,217a100.576,100.576,0,0,1,8.659,7.469c-1.871-5.295-4.691-13.1-6.054-15.765-2.088-.646-4.058-1.429-5.807-2.125-.812-.323-1.58-.628-2.323-.907l-.047-.019c-5.16-2.293-7.337-1.242-12.144,3.565-2.239,2.239-3.353,4.976-3.211,5.711l.149.075c1.378.543,3.029.7,4.854-2.172a.859.859,0,0,1,.117-.146,2.452,2.452,0,0,1,1.852-.874,2.4,2.4,0,0,0,1.115-.273c.208-.087.441-.186.738-.287a15.736,15.736,0,0,1,2.242-.956.855.855,0,0,1,.27-.044h.624a2.939,2.939,0,0,1,.894.2,3.687,3.687,0,0,0,.374.112.855.855,0,0,1,.583.25c.875.875,2.164,1.96,3.657,3.217C23.907,214.925,25.114,215.941,26.3,217Zm-7.719-6.435h0Z" transform="translate(-97.375 -24.089)" fill="#fff"/>
    <path d="M148.969,219.609h-9.354a2.885,2.885,0,0,1-2.323-1.72.853.853,0,0,1-.071-.2c-.937-4.373-7.114-21.226-8.9-24.3a2.7,2.7,0,0,1-.474-1.756.855.855,0,0,1,.25-.6l.936-.935a.855.855,0,0,1,.456-.237c.066-.021.216-.074.363-.126a57.3,57.3,0,0,1,19.117-3.005,2.335,2.335,0,0,1,2.414,2.414V217.2A2.335,2.335,0,0,1,148.969,219.609Zm-10.1-2.4c.238.423.593.689.749.689h9.354a.629.629,0,0,0,.7-.7V189.133a.629.629,0,0,0-.7-.7,55.606,55.606,0,0,0-18.547,2.907c-.14.05-.249.088-.339.118l-.516.516a.842.842,0,0,0,.063.313.842.842,0,0,1,.116.152C131.705,195.7,137.871,212.777,138.866,217.211Zm-9.232-24.921Zm-.016-.019h0Zm.017-2.433h0Zm0,0h0Z" transform="translate(-195.024 -11.472)" fill="#fff"/>
    <path d="M-21.322,251.907h-.935a9.7,9.7,0,0,1-4.216-1.391l-.039-.027c-.156-.117-.4-.3-.72-.534-2.224-1.646-8.124-6.011-13.315-10.38a15.739,15.739,0,0,1-2.271-2.19c-.409-.444-.831-.9-1.247-1.318a.855.855,0,0,1-.2-.892,159.217,159.217,0,0,0,4.956-18.589.855.855,0,0,1,.838-.687h6.236a.855.855,0,0,1,.79.528.855.855,0,0,1-.185.932c-2.04,2.04-4.666,6.136-4.135,8.874a2.853,2.853,0,0,0,2.139,2.156.841.841,0,0,1,.125.035c3.716,1.351,6.446-.8,8.083-2.849a.855.855,0,0,1,.668-.321,3.3,3.3,0,0,0,1.525-.316c.113-.046.235-.1.37-.147a1.794,1.794,0,0,1,.712-.443,1.572,1.572,0,0,0,.23-.1.838.838,0,0,1,1.139-.041c.689.574,1.473,1.2,2.3,1.859,1.4,1.114,2.983,2.376,4.559,3.755l1.191.95c4.435,3.533,9.021,7.187,10.259,9.943a2.96,2.96,0,0,1-.481,3.463.855.855,0,0,1-.222.16,2.83,2.83,0,0,1-2.635.312.856.856,0,0,1-.222-.16l-9.042-9.042a.652.652,0,0,0-.974,0,.652.652,0,0,0,0,.974l8.731,8.731a.855.855,0,0,1,.16.987,3.635,3.635,0,0,1-1.14,1.251,3.3,3.3,0,0,0-.268.218.851.851,0,0,1-.334.207c-.774.258-2.616.547-3.369-.207l-7.8-7.795a.662.662,0,0,0-.973,0,.685.685,0,0,0-.218.487.685.685,0,0,0,.218.487l7.171,7.172a.855.855,0,0,1,.207.875,3.256,3.256,0,0,1-2.1,2.412.855.855,0,0,1-.27.044,3.153,3.153,0,0,0-.362.032,2.3,2.3,0,0,1-2.114-.595l-6.236-6.236a.652.652,0,0,0-.974,0,.652.652,0,0,0,0,.974l4.989,4.989a.855.855,0,0,1,.185.931A.855.855,0,0,1-21.322,251.907Zm-4.184-2.8a7.862,7.862,0,0,0,1.834.805l-3.243-3.243a2.373,2.373,0,0,1,0-3.391,2.373,2.373,0,0,1,3.392,0l6.236,6.236c.153.153.23.165.693.107.126-.016.264-.033.412-.041a1.242,1.242,0,0,0,.73-.8l-6.785-6.785a2.373,2.373,0,0,1,0-3.391,2.373,2.373,0,0,1,3.392,0l7.734,7.734a3.538,3.538,0,0,0,1.52-.1c.086-.072.175-.141.262-.208s.183-.14.27-.214l-8.189-8.189a2.373,2.373,0,0,1,0-3.392,2.373,2.373,0,0,1,3.392,0l8.913,8.913a1.681,1.681,0,0,0,.869-.27A1.273,1.273,0,0,0-4,241.457l-.016-.035c-1.056-2.376-5.685-6.063-9.769-9.317q-.608-.485-1.209-.964l-.029-.024c-1.551-1.357-3.124-2.61-4.513-3.716-.66-.526-1.29-1.028-1.873-1.5l-.111.044-.016.006a.854.854,0,0,1-.449.349c-.225.075-.414.152-.6.226a4.858,4.858,0,0,1-1.755.43c-2.751,3.251-6.176,4.35-9.688,3.1a4.559,4.559,0,0,1-3.4-3.424c0-.013-.006-.026-.009-.04-.582-2.912,1.356-6.529,3.305-8.979h-3.64a164.894,164.894,0,0,1-4.7,17.636c.311.324.618.657.918.982a14.532,14.532,0,0,0,2,1.954.826.826,0,0,1,.077.057c5.159,4.344,11.048,8.7,13.265,10.342Zm14.356-2.786,7.6-2.751h0Z" transform="translate(-59.654 -34.416)" fill="#fff"/>
  </g>
</svg>
