<svg xmlns="http://www.w3.org/2000/svg" width="34.699" height="27.719" viewBox="0 0 34.699 27.719">
  <path d="M18.526-55.2H14.2L10-52.186v4.64l3.926-2.7v22.406h4.6Zm21.731,0h-5L29.669-43.1c-1.229,2.7-2.221,5.155-2.221,7.178,0,5.473,3.767,8.447,8.645,8.447,4.917,0,8.605-3.014,8.605-8.526,0-4.64-3.093-8.09-7.376-8.09a5.941,5.941,0,0,0-2.617.516ZM32.049-35.888c0-2.617,1.507-4.4,4.045-4.4,2.5,0,4.005,1.785,4.005,4.4,0,2.657-1.507,4.4-4.005,4.4C33.556-31.486,32.049-33.231,32.049-35.888Z" transform="translate(-10 55.2)" fill="#eb2935"/>
</svg>
